<svg width="196" height="109" viewBox="0 0 196 109" fill="none" xmlns="http://www.w3.org/2000/svg">
<path fill-rule="evenodd" clip-rule="evenodd" d="M123.496 75.5073L0.91661 75.5073L0.73931 69.4927L190.911 69.4927L191.353 75.4955L51.2342 88.0211C56.3462 88.1334 61.5684 88.2437 66.849 88.3552C75.6378 88.5409 84.5885 88.7299 93.4625 88.9371C127.664 89.7358 160.816 90.8051 178.777 93.0151L178.223 98.9849C160.624 96.8193 127.811 95.7513 93.5007 94.9501C84.6753 94.744 75.7566 94.5556 66.9866 94.3704C41.7673 93.8378 17.7779 93.3311 0.771653 92.5038L0.475342 86.5045L123.496 75.5073Z" fill="white"/>
<path fill-rule="evenodd" clip-rule="evenodd" d="M0.642014 61.4608L5.84985 41.0447L18.0923 40.7405L14.9251 53.1939L16.9594 53.1073C19.5852 52.963 21.7493 52.2994 23.4518 51.1163C25.183 49.9333 26.5392 47.8124 27.5203 44.7538C28.0406 43.1082 28.3021 41.6858 28.3049 40.4867L39.6524 40.2048C39.6445 41.1723 39.5825 42.227 39.4662 43.3688C39.1488 46.11 38.2399 49.0099 36.7394 52.0685C35.2678 55.1271 33.4644 57.5654 31.3291 59.3832C30.752 59.9026 30.1461 60.3787 29.5113 60.8115C28.9053 61.2155 28.3571 61.5762 27.8665 61.8936C27.376 62.211 26.7412 62.4996 25.9621 62.7592C25.183 62.9901 24.6059 63.1921 24.2308 63.3652C23.8557 63.5095 23.1921 63.6393 22.2398 63.7547C21.3165 63.8702 20.7105 63.9567 20.422 64.0144C20.1334 64.0721 19.4265 64.1154 18.3012 64.1443C17.1758 64.1731 16.4977 64.1876 16.2669 64.1876H13.9729H11.7223H2.41658C1.69521 64.1876 1.17583 63.9279 0.858422 63.4085C0.541016 62.8602 0.46888 62.211 0.642014 61.4608ZM26.8278 36.7899C27.3684 37.2297 27.7606 37.7976 28.0045 38.4936L39.5812 38.2059C39.5096 37.3741 39.3847 36.628 39.2065 35.9675C38.7448 34.1497 37.807 32.7502 36.3931 31.7692C38.1091 31.1066 39.625 30.1539 40.9408 28.9111L8.77292 29.5855L6.36343 39.0313L18.6043 38.7271L19.3832 35.6646C23.5095 35.7223 25.991 36.0974 26.8278 36.7899ZM40.6935 60.725L51.5038 39.9103L86.8531 39.032L85.5339 62.2399C85.4473 63.5383 84.5672 64.1876 82.8937 64.1876H75.7088C74.266 64.1876 73.588 63.3941 73.6745 61.807L74.6267 46.9179H60.56L52.8991 62.4996C52.2931 63.7692 51.1678 64.3607 49.523 64.2741L42.6412 64.0144C41.5735 63.9856 40.8666 63.6393 40.5203 62.9757C40.1741 62.312 40.2318 61.5618 40.6935 60.725ZM52.5564 37.8835L86.967 37.0285L87.4839 27.9353L75.9068 28.178L75.3625 36.3571H65.7106L69.6581 28.309L57.3956 28.5661L52.5564 37.8835ZM90.642 61.4608L96.4282 38.794L108.685 38.4895L102.631 62.2399C102.285 63.5383 101.39 64.1876 99.9477 64.1876H92.4166C91.6952 64.1876 91.1758 63.9279 90.8584 63.4085C90.541 62.8602 90.4689 62.211 90.642 61.4608ZM96.9422 36.7807L109.198 36.4761L111.503 27.4318L99.2632 27.6884L96.9422 36.7807ZM119.555 61.4608L114.31 38.3497L138.039 37.7601L131.803 62.2399C131.457 63.5383 130.563 64.1876 129.12 64.1876H121.329C120.694 64.1876 120.261 63.9134 120.031 63.3652C119.829 63.0189 119.728 62.6438 119.728 62.2399C119.67 61.8936 119.612 61.6339 119.555 61.4608ZM143.33 61.4608L149.452 37.4766L161.697 37.1723L155.319 62.2399C154.972 63.5383 154.078 64.1876 152.635 64.1876H145.104C144.383 64.1876 143.863 63.9279 143.546 63.4085C143.229 62.8602 143.156 62.211 143.33 61.4608ZM168.433 61.9802L162.579 37.1504L174.674 36.8499L180.769 61.5473C181.317 63.3075 180.639 64.1876 178.734 64.1876H171.723C169.934 64.1876 168.837 63.4518 168.433 61.9802ZM149.966 35.4632L174.184 34.8614L173.367 31.5528L177.549 26.0471L152.234 26.5778L149.966 35.4632ZM194.835 3.28945L179.093 24.0143L165.73 24.2945L182.457 1.16862C182.687 0.880074 182.861 0.678089 182.976 0.562672C183.12 0.418396 183.366 0.288549 183.712 0.173132C184.087 0.0577106 184.549 0 185.097 0H193.797C194.807 0 195.398 0.346258 195.571 1.03877C195.773 1.73129 195.528 2.48152 194.835 3.28945ZM170.467 2.77007L164.982 24.3102L152.748 24.5666L158.522 1.9477C158.868 0.649235 159.748 0 161.162 0H168.693C169.414 0 169.934 0.274122 170.251 0.822367C170.568 1.37061 170.641 2.01984 170.467 2.77007ZM146.952 2.77007L141.339 24.8058L129.091 25.0626L134.963 1.9477C135.309 0.649235 136.204 0 137.647 0H145.178C145.899 0 146.418 0.274122 146.736 0.822367C147.053 1.37061 147.125 2.01984 146.952 2.77007ZM118.386 2.77007L123.502 25.1798L99.7766 25.6772L105.834 1.9477C106.18 0.649235 107.06 0 108.474 0H116.005C116.64 0 117.116 0.201984 117.434 0.605953C117.607 0.721371 117.751 0.880072 117.867 1.08206C117.982 1.25519 118.054 1.41389 118.083 1.55816C118.141 1.70244 118.198 1.91885 118.256 2.20739C118.314 2.46709 118.357 2.65464 118.386 2.77007ZM88.8233 4.37151L87.5977 25.9325L76.0401 26.1748L76.8774 13.5906L70.6495 26.2878L58.446 26.5436L70.2985 3.72228C70.9045 2.56808 71.6403 1.68801 72.5059 1.08206C73.3716 0.476107 74.2516 0.173132 75.1461 0.173132L85.3607 0.0865688C86.4572 0.0865688 87.3229 0.447254 87.9577 1.16862C88.6213 1.89 88.9099 2.95762 88.8233 4.37151ZM43.4049 25.8828C43.1894 26.2254 42.9653 26.5555 42.7325 26.8731L9.28594 27.5743L13.67 10.3877H11.376C10.5969 10.3877 9.91884 10.1569 9.34174 9.69522C8.76465 9.23355 8.56265 8.69973 8.73579 8.09378L10.4238 1.77457C10.5392 1.25519 10.8133 0.836792 11.2462 0.51939C11.679 0.17313 12.0829 0 12.4581 0H29.9008C35.2678 0 39.4373 1.11091 42.4094 3.33273C45.4103 5.55456 46.9107 8.72859 46.9107 12.8548C46.9107 15.1055 46.5789 17.4283 45.9152 19.8233C45.2804 22.1894 44.4436 24.2092 43.4049 25.8828ZM125.986 36.059L123.957 27.1707L111.831 27.4249L113.858 36.3603L125.986 36.059ZM128.58 27.0737L126.299 36.0512L138.552 35.7468L140.827 26.817L128.58 27.0737ZM23.3652 26.7051L21.7205 26.5753L25.8323 10.3877H28.9486C30.8242 10.3877 32.0649 10.9071 32.6709 11.9459C33.2768 12.9847 33.3922 14.5573 33.0171 16.6637C31.7187 23.5023 28.5014 26.8494 23.3652 26.7051Z" fill="white"/>
</svg>
